<?xml version="1.0" standalone="no"?>
<!DOCTYPE svg PUBLIC "-//W3C//DTD SVG 20010904//EN"
 "http://www.w3.org/TR/2001/REC-SVG-20010904/DTD/svg10.dtd">
<svg version="1.0" xmlns="http://www.w3.org/2000/svg"
 width="500.000000pt" height="500.000000pt" viewBox="0 0 500.000000 500.000000"
 preserveAspectRatio="xMidYMid meet">

<g transform="translate(0.000000,500.000000) scale(0.100000,-0.100000)"
fill="#000000" stroke="none">
<path d="M0 2500 l0 -2500 2500 0 2500 0 0 2500 0 2500 -2500 0 -2500 0 0
-2500z m1342 853 l3 -558 373 -3 372 -2 0 555 0 555 55 0 55 0 0 -554 0 -554
123 -7 c67 -3 408 -5 757 -3 l635 3 3 558 2 557 50 0 50 0 0 -1185 0 -1185
-50 0 -50 0 0 580 0 580 -760 0 -760 0 0 -580 0 -580 -55 0 -55 0 0 585 0 585
-375 0 -375 0 0 -580 0 -580 -50 0 -50 0 0 1185 0 1185 50 0 50 0 2 -557z
m1628 47 l0 -510 -55 0 -55 0 0 510 0 510 55 0 55 0 0 -510z m0 -1345 l0 -515
-55 0 -55 0 0 515 0 515 55 0 55 0 0 -515z m-1672 -722 l-38 -4 0 -74 0 -74
38 -4 37 -4 -42 -1 -43 -2 0 85 0 85 43 -2 42 -1 -37 -4z m189 -126 c-2 -23
-3 -1 -3 48 0 50 1 68 3 42 2 -26 2 -67 0 -90z m183 98 c0 -5 -4 -4 -9 4 -7
11 -11 10 -20 -5 -14 -25 -14 -9 0 18 9 17 13 18 20 7 5 -8 9 -18 9 -24z m189
-40 c0 -5 -8 6 -19 25 -11 19 -19 40 -19 45 0 6 8 -6 19 -25 11 -19 19 -39 19
-45z m120 28 c-2 -46 -2 -46 -8 -13 -6 32 -7 33 -15 12 -4 -13 -10 -21 -13
-19 -5 6 25 67 32 67 3 0 4 -21 4 -47z m230 21 c12 -15 21 -40 20 -58 -1 -30
-1 -30 -8 6 -10 50 -27 68 -66 68 -40 0 -57 -19 -66 -73 l-6 -42 -2 36 c-2 51
30 89 74 89 24 0 39 -7 54 -26z m232 -43 l5 74 2 -89 c1 -50 -2 -86 -6 -80
-22 25 -112 155 -112 161 0 4 24 -25 53 -66 l52 -74 6 74z m157 62 l-38 -4 0
-74 0 -74 38 -4 37 -4 -42 -1 -43 -2 0 85 0 85 43 -2 42 -1 -37 -4z m357 -73
l54 0 4 43 c2 23 4 2 4 -48 0 -49 -2 -71 -4 -47 l-4 42 -54 0 -54 0 -4 -42
c-2 -24 -4 -2 -4 47 0 50 2 71 4 48 l4 -43 54 0z m218 73 c-42 -4 -43 -5 -43
-39 0 -33 1 -34 43 -36 l42 -1 -42 -4 c-41 -4 -43 -5 -43 -38 0 -33 2 -34 43
-38 l42 -4 -47 -1 -48 -2 0 85 0 85 48 -2 47 -1 -42 -4z m197 -3 c0 -5 -4 -10
-10 -10 -5 0 -10 5 -10 10 0 6 5 10 10 10 6 0 10 -4 10 -10z m234 -6 c9 -8 16
-21 16 -27 0 -6 -7 -1 -16 11 -10 14 -25 22 -45 22 -27 0 -29 -3 -29 -35 0
-31 3 -35 28 -36 15 0 21 -3 14 -6 -10 -4 -10 -11 3 -31 l16 -27 -23 28 c-13
15 -27 27 -30 27 -4 0 -9 -19 -11 -42 -2 -24 -4 -4 -5 45 l-2 87 34 0 c19 0
42 -7 50 -16z m174 9 c-28 -4 -28 -5 -30 -86 l-2 -82 -3 82 c-4 80 -4 82 -31
86 -15 2 0 4 33 4 33 0 48 -2 33 -4z m-2408 -18 c19 -22 8 -25 -12 -3 -10 10
-14 18 -9 18 5 0 14 -7 21 -15z m1304 -12 c10 -25 3 -23 -17 3 -13 18 -14 22
-3 18 8 -3 17 -13 20 -21z m667 -20 c-12 -20 -14 -14 -5 12 4 9 9 14 11 11 3
-2 0 -13 -6 -23z m49 -8 c0 -5 -5 -3 -10 5 -5 8 -10 20 -10 25 0 6 5 3 10 -5
5 -8 10 -19 10 -25z m-1573 -72 c-2 -21 -4 -6 -4 32 0 39 2 55 4 38 2 -18 2
-50 0 -70z m-127 52 c0 -5 -5 -3 -10 5 -5 8 -10 20 -10 25 0 6 5 3 10 -5 5 -8
10 -19 10 -25z m-303 -12 c-3 -10 -5 -4 -5 12 0 17 2 24 5 18 2 -7 2 -21 0
-30z m234 10 c-12 -20 -14 -14 -5 12 4 9 9 14 11 11 3 -2 0 -13 -6 -23z m1066
-5 c-3 -8 -6 -5 -6 6 -1 11 2 17 5 13 3 -3 4 -12 1 -19z m639 -3 c-4 -12 3
-15 34 -15 33 0 38 3 34 18 -5 14 -4 14 4 2 5 -8 13 -26 16 -40 6 -21 5 -22
-4 -7 -8 12 -24 17 -55 17 -25 0 -45 2 -45 4 0 10 13 36 17 36 3 0 3 -7 -1
-15z m-1437 -50 c0 -5 -6 1 -14 15 -8 14 -14 30 -14 35 0 6 6 -1 14 -15 8 -14
14 -29 14 -35z m-173 -22 c-3 -3 -8 6 -12 21 -5 23 -11 26 -50 26 -30 0 -46
-5 -53 -17 -6 -10 -10 -13 -11 -8 0 23 18 34 60 37 41 3 46 1 58 -26 7 -15 11
-31 8 -33z m205 40 c-12 -20 -14 -14 -5 12 4 9 9 14 11 11 3 -2 0 -13 -6 -23z
m740 -16 l-24 -22 19 27 c10 14 21 24 23 22 3 -3 -6 -15 -18 -27z m-1291 -2
c-7 -8 -16 -15 -21 -15 -5 0 -1 8 9 18 20 22 31 19 12 -3z m836 -3 c-17 -16
-18 -16 -5 5 7 12 15 20 18 17 3 -2 -3 -12 -13 -22z m-51 -15 l30 -4 -31 -2
c-21 -1 -37 6 -50 22 -19 22 -19 22 1 5 11 -9 34 -18 50 -21z m1146 6 c-12
-20 -14 -14 -5 12 4 9 9 14 11 11 3 -2 0 -13 -6 -23z m320 -11 c-7 -2 -18 1
-23 6 -8 8 -4 9 13 5 13 -4 18 -8 10 -11z"/>
</g>
</svg>
