<svg xmlns="http://www.w3.org/2000/svg" width="500" height="500" viewBox="0 0 500 500" version="1.1"><path d="M 225 120.594 C 229.832 122.687, 233.740 126.624, 236.653 132.334 L 239.119 137.167 234.517 152.708 C 231.987 161.256, 230.047 168.339, 230.208 168.449 C 231.376 169.247, 241.256 173.073, 241.493 172.820 C 241.819 172.471, 250.371 148.809, 251.405 145.396 C 253.419 138.747, 232.477 118.984, 223.500 119.061 C 222.141 119.073, 222.622 119.564, 225 120.594 M 241.921 125.396 C 250.653 136.932, 254.983 146.307, 267.982 181.819 C 270.143 187.722, 270.780 188.466, 277.641 193.095 C 286.446 199.037, 301.320 211.159, 309.250 218.856 C 315.860 225.272, 316.002 225.165, 312.148 216.666 C 310.170 212.303, 307.877 209.214, 304.662 206.580 C 301.230 203.767, 298.445 199.860, 293.917 191.505 C 275.618 157.739, 252.916 127.799, 240.222 120.691 C 237.051 118.915, 237.082 119.003, 241.921 125.396 M 350.250 165.760 C 343.564 175.291, 331.494 188.505, 322.090 196.587 L 313.224 204.207 315.463 209.853 C 316.695 212.959, 318.009 216.363, 318.384 217.417 C 318.887 218.831, 319.359 219.041, 320.184 218.216 C 321.009 217.391, 320.637 215.752, 318.768 211.974 L 316.232 206.852 327.366 195.637 C 337.034 185.899, 345.814 174.868, 353.146 163.250 C 356.522 157.899, 354.588 159.576, 350.250 165.760 M 186.139 193.147 C 168.109 198.336, 161.058 219.777, 173.147 232.655 C 175.075 234.709, 175.091 234.932, 173.475 237.397 C 171.803 239.950, 172.031 243, 173.895 243 C 175.744 243, 180.248 231.642, 179.051 230 C 171.870 220.150, 173.015 210.623, 182.177 203.987 C 186.945 200.533, 191.483 199.904, 190.555 202.825 C 190.073 204.347, 190.846 204.852, 195.196 205.856 C 200.544 207.090, 211.752 212.792, 213.886 215.363 C 214.835 216.506, 214.040 219.621, 209.983 230.649 C 198.051 263.086, 180.130 285.116, 161.132 290.699 C 153.309 292.998, 153.421 293.638, 161.794 294.479 C 181.972 296.506, 200.011 283.587, 209.325 260.439 C 212.110 253.517, 212.196 253.424, 215.492 253.809 C 218.376 254.146, 218.880 253.877, 219.167 251.850 C 219.462 249.767, 220.352 249.349, 227 248.167 C 231.125 247.433, 240.125 245.276, 247 243.373 C 253.875 241.470, 260.440 239.669, 261.590 239.370 C 263.721 238.817, 266.682 243.888, 268.528 251.250 C 269.361 254.576, 268.961 254.560, 275 251.500 C 277.713 250.125, 280.602 249, 281.418 249 C 283.166 249, 299.177 266.484, 307.241 277.199 C 316.204 289.108, 322.837 293.913, 332.250 295.315 C 336.838 295.999, 336.862 296.450, 331.878 288.268 C 295.516 228.560, 224.393 182.139, 186.139 193.147 M 223.100 224.251 C 220.130 232.088, 217.471 239.123, 217.191 239.885 C 216.328 242.236, 239.618 238.437, 254.250 233.842 C 263.179 231.037, 260.208 227.557, 237.442 214.155 C 228.214 208.722, 229.266 207.982, 223.100 224.251 M 206 335.500 L 206 353 209.500 353 L 213 353 213 346 L 213 339 219 339 L 225 339 225 346 L 225 353 229 353 L 233 353 233 335.500 L 233 318 229 318 L 225 318 225 325 L 225 332 219 332 L 213 332 213 325 L 213 318 209.500 318 L 206 318 206 335.500 M 238 335.500 L 238 353 242 353 L 246 353 246 335.500 L 246 318 242 318 L 238 318 238 335.500 M 252 335.500 L 252 353 261.500 353 L 271 353 271 349.500 L 271 346 265 346 L 259 346 259 332 L 259 318 255.500 318 L 252 318 252 335.500 M 276 335.500 L 276 353 285.500 353 L 295 353 295 349.500 L 295 346 289 346 L 283 346 283 332 L 283 318 279.500 318 L 276 318 276 335.500" stroke="none" fill="#5e0094" fill-rule="evenodd"/><path d="M 0 250.002 L 0 500.004 250.250 499.752 L 500.500 499.500 500.752 249.750 L 501.004 0 250.502 0 L 0 0 0 250.002 M 0.492 250.500 C 0.492 388, 0.608 444.101, 0.750 375.170 C 0.892 306.238, 0.892 193.738, 0.750 125.170 C 0.608 56.601, 0.492 113, 0.492 250.500 M 225 115.578 C 217.930 117.839, 217.645 118.328, 210.207 141.020 L 203.166 162.500 193.833 163.082 C 139.872 166.446, 121.191 227.232, 164.894 257.246 C 168.399 259.653, 162.214 271.721, 150.262 285.798 C 145.002 291.993, 144.969 291.921, 153.738 293.618 C 174.597 297.655, 191.272 290.935, 202.660 273.901 C 205.041 270.339, 205.172 270.289, 215.283 269.081 C 236.299 266.572, 254.489 261.520, 272 253.328 L 281.500 248.884 290.030 257.692 C 294.721 262.536, 302.371 271.411, 307.030 277.414 C 321.763 296.398, 339.471 301.647, 350.246 290.223 L 352.814 287.500 350.064 279.500 C 345.748 266.941, 337.839 252.742, 329.316 242.248 C 327.417 239.910, 324.331 234.092, 322.457 229.320 L 319.051 220.644 322.776 216.206 C 340.342 195.277, 349.011 180.836, 356.367 160.250 C 359.284 152.086, 359.181 151.313, 355.901 156.750 C 347.903 170.008, 317.789 203.016, 313.711 202.993 C 313.045 202.990, 310.035 196.577, 307.023 188.743 C 282.550 125.095, 259.511 104.544, 225 115.578 M 247.576 157.200 C 244.967 164.515, 242.635 171.175, 242.394 172 C 242.083 173.065, 244.498 174.710, 250.728 177.676 C 255.553 179.973, 261.866 183.275, 264.757 185.013 L 270.013 188.173 266.944 179.836 C 262.452 167.634, 254.119 146.704, 253.154 145.200 C 252.608 144.348, 250.681 148.493, 247.576 157.200 M 185.500 202.393 C 175.003 206.992, 171.289 219.130, 177.941 227.098 L 180.664 230.360 184.709 218.930 C 191.156 200.709, 191.195 199.898, 185.500 202.393 M 228.513 210.978 C 228.179 211.520, 227.057 214.333, 226.019 217.231 C 224.982 220.129, 222.755 226.100, 221.070 230.500 C 217.248 240.482, 217.253 240.739, 221.250 240.284 C 233.053 238.942, 261.039 232.486, 260.967 231.122 C 260.919 230.214, 246.486 219.905, 239.500 215.787 C 230.302 210.367, 229.192 209.881, 228.513 210.978 M 206 335.500 L 206 353 210 353 L 214 353 214 346 L 214 339 219.500 339 L 225 339 225 346 L 225 353 229 353 L 233 353 233 335.500 L 233 318 229 318 L 225 318 225 325 L 225 332 219.500 332 L 214 332 214 325 L 214 318 210 318 L 206 318 206 335.500 M 238 335.500 L 238 353 242 353 L 246 353 246 335.500 L 246 318 242 318 L 238 318 238 335.500 M 251 335.500 L 251 353 261 353 L 271 353 271 349.500 L 271 346 265 346 L 259 346 259 332 L 259 318 255 318 L 251 318 251 335.500 M 275 335.500 L 275 353 285 353 L 295 353 295 349.500 L 295 346 289 346 L 283 346 283 332 L 283 318 279 318 L 275 318 275 335.500 M 235.277 367.526 C 231.265 369.212, 230.158 373.391, 232.785 376.927 C 238.183 384.190, 248.720 376.757, 243.531 369.347 C 241.583 366.567, 238.943 365.984, 235.277 367.526 M 274 366.774 C 268.978 368.404, 267.381 374.381, 271 378 C 275.233 382.233, 282.016 379.406, 281.985 373.421 C 281.960 368.785, 277.989 365.479, 274 366.774 M 253.655 368.829 C 249.616 373.292, 253.325 380.659, 259.192 379.827 C 262.026 379.425, 263.317 373, 260.563 373 C 259.648 373, 259 373.860, 259 375.073 C 259 377.969, 255.600 377.180, 255.173 374.185 C 254.754 371.244, 256.837 368.724, 259.180 369.337 C 260.303 369.630, 261 369.274, 261 368.406 C 261 366.335, 255.632 366.644, 253.655 368.829" stroke="none" fill="#fdf0ff" fill-rule="evenodd"/><path d="M 225 115.578 C 217.930 117.839, 217.645 118.328, 210.207 141.020 L 203.166 162.500 193.833 163.082 C 139.872 166.446, 121.191 227.232, 164.894 257.246 C 168.399 259.653, 162.214 271.721, 150.262 285.798 C 147.787 288.712, 146.006 291.339, 146.302 291.636 C 147.302 292.635, 154.445 293.897, 154.975 293.168 C 155.264 292.771, 158.197 291.613, 161.493 290.595 C 180.444 284.744, 198.126 262.884, 209.983 230.649 C 214.040 219.621, 214.835 216.506, 213.886 215.363 C 210.045 210.734, 189 202.419, 189 205.530 C 189 211.659, 180.647 229.997, 178.630 228.296 L 176.500 226.500 178.397 228.742 C 180.365 231.066, 177.044 241.819, 174.050 242.817 C 172.124 243.459, 171.759 240.017, 173.475 237.397 C 175.091 234.932, 175.075 234.709, 173.147 232.655 C 164.998 223.974, 165.074 210.458, 173.323 201.328 C 202.118 169.455, 294.550 221.477, 333.983 291.750 C 335.295 294.087, 336.880 296, 337.506 296 C 340.539 296, 347.990 292.615, 350.263 290.205 L 352.814 287.500 350.064 279.500 C 345.748 266.941, 337.839 252.742, 329.316 242.248 C 327.417 239.910, 324.331 234.092, 322.457 229.320 L 319.051 220.644 322.776 216.206 C 340.466 195.129, 349.224 180.491, 356.404 160 C 358.662 153.557, 358.759 152.848, 357.094 154.972 C 356.028 156.332, 355.373 157.794, 355.637 158.222 C 355.902 158.650, 355.615 159, 355 159 C 354.385 159, 354.119 159.384, 354.409 159.853 C 354.699 160.322, 354.242 161.559, 353.394 162.603 C 352.546 163.646, 352.182 163.825, 352.586 163 C 353.011 162.133, 352.942 161.846, 352.423 162.321 C 351.929 162.772, 351.520 163.897, 351.513 164.821 C 351.506 165.744, 350.990 166.405, 350.368 166.289 C 349.745 166.173, 349.295 166.837, 349.368 167.765 C 349.440 168.693, 348.975 169.463, 348.333 169.476 C 347.692 169.489, 346.792 169.910, 346.333 170.410 C 345.849 170.939, 346.024 171.019, 346.750 170.601 C 351.706 167.749, 338.636 184.481, 326.404 196.646 L 316.203 206.792 318.753 211.945 C 320.633 215.744, 321.009 217.391, 320.184 218.216 C 319.359 219.041, 318.887 218.831, 318.384 217.417 C 318.009 216.363, 316.676 212.912, 315.421 209.750 C 314.167 206.588, 313.446 203.993, 313.820 203.985 C 314.194 203.976, 314.025 203.639, 313.444 203.235 C 312.864 202.831, 309.754 195.766, 306.534 187.536 C 281.812 124.356, 259.403 104.579, 225 115.578 M 225 120.594 C 229.832 122.687, 233.740 126.624, 236.653 132.334 L 239.119 137.167 234.517 152.708 C 231.987 161.256, 230.047 168.338, 230.208 168.446 C 230.369 168.554, 235.542 170.797, 241.705 173.429 C 247.869 176.062, 256.319 180.211, 260.484 182.649 C 264.686 185.109, 268.601 186.770, 269.279 186.381 C 269.950 185.995, 270.173 186.041, 269.773 186.483 C 269.373 186.925, 272.962 189.959, 277.747 193.225 C 287.633 199.970, 300.782 210.676, 309.250 218.872 C 315.860 225.270, 316.001 225.163, 312.148 216.666 C 310.170 212.303, 307.877 209.214, 304.662 206.580 C 301.230 203.767, 298.445 199.860, 293.917 191.505 C 275.618 157.739, 252.916 127.799, 240.222 120.691 C 237.051 118.915, 237.082 119.003, 241.921 125.396 C 246.809 131.854, 253.267 142.651, 254.545 146.500 C 254.910 147.600, 253.276 145.350, 250.914 141.500 C 243.598 129.575, 230.618 118.944, 223.500 119.049 C 222.129 119.069, 222.600 119.555, 225 120.594 M 258.966 239.959 C 256.835 241.207, 236.075 246.531, 227 248.156 C 220.355 249.347, 219.462 249.768, 219.167 251.850 C 218.882 253.869, 218.372 254.145, 215.544 253.815 C 212.286 253.435, 212.220 253.511, 208.722 261.716 C 204.583 271.423, 203.549 270.802, 220 268.483 C 233.825 266.534, 249.345 262.611, 260.637 258.213 L 269.773 254.654 268.004 249.577 C 264.312 238.986, 263.004 237.594, 258.966 239.959 M 235.277 367.526 C 231.265 369.212, 230.158 373.391, 232.785 376.927 C 238.183 384.190, 248.720 376.757, 243.531 369.347 C 241.583 366.567, 238.943 365.984, 235.277 367.526 M 274 366.774 C 268.978 368.404, 267.381 374.381, 271 378 C 275.233 382.233, 282.016 379.406, 281.985 373.421 C 281.960 368.785, 277.989 365.479, 274 366.774 M 253.655 368.829 C 249.616 373.292, 253.325 380.659, 259.192 379.827 C 262.026 379.425, 263.317 373, 260.563 373 C 259.648 373, 259 373.860, 259 375.073 C 259 377.969, 255.600 377.180, 255.173 374.185 C 254.754 371.244, 256.837 368.724, 259.180 369.337 C 260.303 369.630, 261 369.274, 261 368.406 C 261 366.335, 255.632 366.644, 253.655 368.829" stroke="none" fill="#9c05c9" fill-rule="evenodd"/><path d="" stroke="none" fill="#fbf3fb" fill-rule="evenodd"/></svg>